<svg id="patient" xmlns="http://www.w3.org/2000/svg" width="52.948" height="53.291" viewBox="0 0 52.948 53.291">
  <defs>
    <style>
      .cls-1 {
        fill: #008541;
      }
    </style>
  </defs>
  <path id="Path_1899" data-name="Path 1899" class="cls-1" d="M25.788,38.474h-1.1a3.865,3.865,0,0,1-3.861-3.861V29.649H15.861A3.865,3.865,0,0,1,12,25.788v-1.1a3.865,3.865,0,0,1,3.861-3.861h4.964V15.861A3.865,3.865,0,0,1,24.685,12h1.1a3.865,3.865,0,0,1,3.861,3.861v4.964h4.964a3.865,3.865,0,0,1,3.861,3.861v1.1a3.865,3.865,0,0,1-3.861,3.861H29.649v4.964A3.865,3.865,0,0,1,25.788,38.474Z" transform="translate(14.474 14.817)"/>
  <ellipse id="Ellipse_2" data-name="Ellipse 2" class="cls-1" cx="10.431" cy="11.474" rx="10.431" ry="11.474" transform="translate(9.702 0)"/>
  <path id="Path_1900" data-name="Path 1900" class="cls-1" d="M22.062,25.788v-1.1a8.282,8.282,0,0,1,8.273-8.273h.552v-.552a8.2,8.2,0,0,1,.755-3.409A10.948,10.948,0,0,0,28.68,12H11.031A11.032,11.032,0,0,0,0,23.031V30.2a1.655,1.655,0,0,0,1.655,1.655h23.1A8.226,8.226,0,0,1,22.062,25.788Z" transform="translate(0 14.817)"/>
</svg>
